<svg width="187" height="71" viewBox="0 0 187 71" fill="none" xmlns="http://www.w3.org/2000/svg">
<g clip-path="url(#clip0_8096:44422)">
<path d="M11.7279 58.0117C9.41545 60.4264 7.40735 62.7818 5.68164 64.9406H12.9328V64.8595C11.753 63.7457 11.7279 62.5478 11.7279 60.9661V58.0117Z" fill="black"/>
<path d="M17.5354 47.0273H11.6994V47.1116C11.9711 47.2355 12.1982 47.4391 12.3502 47.6951C12.5022 47.951 12.5718 48.2471 12.5497 48.5435C12.5497 49.1175 12.1669 49.9318 11.9222 50.4153L10.3847 53.5351L7.20629 47.1116V47.0273H0.852539V47.1116C1.6746 47.6014 2.1076 48.3376 2.57825 49.208L6.6572 56.8295V61.0224C6.6572 61.1846 6.6572 61.353 6.6572 61.5184C8.68098 58.5983 11.6241 55.1136 14.4731 52.047L17.5323 47.1116L17.5354 47.0273Z" fill="black"/>
<path d="M29.2766 61.9575V52.0088H29.195C28.6256 52.3159 27.9809 52.4575 27.3344 52.4175H23.5692V52.4986C24.5826 53.344 24.5105 54.1333 24.5105 55.4124V59.8237C24.5105 60.5318 24.567 61.24 24.1277 61.892C23.9779 62.0878 23.7826 62.2445 23.5586 62.3488C23.3345 62.4531 23.0884 62.5019 22.8412 62.491C21.034 62.491 21.3069 60.2043 21.3069 59.0063V52.0088H21.2473C20.6882 52.3188 20.0505 52.4608 19.4118 52.4175H17.7959C17.3315 52.8168 16.8797 53.213 16.4404 53.6061C16.5869 54.1964 16.6388 54.806 16.5942 55.4124V60.7097C16.5942 62.073 16.5942 63.324 17.6892 64.2786C18.5661 64.9741 19.6616 65.3397 20.7829 65.3112C22.3988 65.3112 23.6319 64.7403 24.5481 63.5143V64.9587H30.2085V64.8776C29.195 64.0165 29.3048 63.2273 29.2766 61.9575Z" fill="black"/>
<path d="M41.463 57.6462C40.5876 57.0722 39.4644 56.7758 38.4791 56.4763C37.8202 56.286 36.9103 56.0645 36.9103 55.2284C36.9103 54.4953 37.9771 54.358 38.5262 54.358C39.7732 54.3663 40.9908 54.7349 42.031 55.4187V52.586C40.6403 52.2535 39.2159 52.0808 37.7857 52.0713C36.3612 52.0713 34.8834 52.2054 33.6252 52.9417C32.367 53.6779 31.6014 54.7574 31.6014 56.2299C31.6014 59.9049 38.1465 60.0141 38.1465 61.8453C38.1465 62.853 36.9699 63.0433 36.2012 63.0433C34.4755 63.0433 32.8062 62.4194 31.3535 61.5458L31.9559 64.6655C33.4636 65.0356 35.0066 65.2447 36.5589 65.2895C39.4612 65.2895 43.5402 64.4721 43.5402 60.8252C43.5433 59.4432 42.6114 58.3793 41.463 57.6462Z" fill="black"/>
<path d="M49.2663 58.7354H57.7568C57.6752 54.5425 55.5918 52.0654 51.2649 52.0654C47.459 52.0654 44.5566 54.8139 44.5566 58.6168C44.5566 60.6602 45.2971 62.7005 47.0479 63.9546C48.5823 65.0684 50.6625 65.2868 52.5263 65.2868C54.0015 65.2959 55.4635 65.0094 56.8249 64.4444L57.8917 61.3684C56.5237 62.0766 54.8262 62.7567 53.2919 62.7567C50.8539 62.766 49.2663 61.0751 49.2663 58.7354ZM51.2649 54.4333C52.5796 54.4333 53.1005 55.3692 53.1005 56.4205H49.2663C49.4043 55.3318 50.0601 54.4333 51.2649 54.4333Z" fill="black"/>
<path d="M72.3499 61.9575V57.4652C72.3499 56.0207 72.4314 54.7947 71.4086 53.6248C70.3857 52.4549 69.024 52.0649 67.5461 52.0649C66.1499 52.0649 64.9733 52.4986 64.1794 53.5062V52.0088H64.0947C63.4841 52.2813 62.8218 52.4207 62.1525 52.4175H58.4814V52.4986C59.5231 53.3721 59.4227 54.1583 59.4227 55.4124V61.9575C59.4227 63.2366 59.5075 64.0259 58.4814 64.8713V64.9525H65.1364V64.8713C64.0947 64.0259 64.1951 63.2366 64.1951 61.9575V57.3466C64.1951 56.7476 64.1669 55.9864 64.5779 55.4748C64.7215 55.2844 64.9069 55.1292 65.1201 55.021C65.3333 54.9129 65.5686 54.8547 65.8079 54.8508C66.0914 54.8453 66.3717 54.9127 66.6213 55.0466C66.8709 55.1806 67.0814 55.3764 67.2324 55.6152C67.6183 56.1299 67.6183 56.757 67.6183 57.356V61.9575C67.6183 63.2366 67.6999 64.0259 66.6582 64.8713V64.9525H73.3131V64.8713C72.2683 64.0165 72.3499 63.2273 72.3499 61.9575Z" fill="black"/>
<path d="M86.2528 61.7836V50.8646C86.2528 49.4233 86.0614 47.8728 87.4012 47.0274V46.9463H80.0371V47.0274C81.3769 47.8728 81.1855 49.4233 81.1855 50.8397V60.9943C81.1855 62.4107 81.3769 63.9362 80.0371 64.7785V64.8628H91.9759L93.0145 61.0505C91.8096 61.949 90.633 62.2485 89.1269 62.2485C88.1417 62.2485 87.1376 62.1923 86.2528 61.7836Z" fill="black"/>
<path d="M105.173 53.5345C103.833 52.3927 102.136 51.9746 100.382 51.9746C96.2748 51.9746 93.2627 54.5359 93.2627 58.7007C93.2627 62.7314 96.2466 65.2084 100.166 65.2084C104.329 65.2084 107.451 62.7314 107.451 58.4293C107.447 57.4986 107.242 56.5796 106.849 55.7349C106.456 54.8902 105.884 54.1397 105.173 53.5345ZM100.492 62.6814C98.0821 62.6814 97.8625 59.8238 97.8625 58.0019C97.8625 56.3952 98.3269 54.6014 100.272 54.6014C102.491 54.6014 102.845 57.3218 102.845 59.0095C102.845 60.6131 102.572 62.6814 100.492 62.6814Z" fill="black"/>
<path d="M119.961 62.8471C118.976 62.3012 117.608 62.1109 116.484 62.1109L113.66 62.2762C113.466 62.2762 113.221 62.1671 113.221 61.9487C113.221 61.4308 114.235 61.3497 114.589 61.3497C115.907 61.3497 117.548 60.941 118.643 60.1236C119.656 59.3624 120.369 58.3267 120.369 57.0039C120.373 56.5607 120.285 56.1213 120.111 55.7134C119.936 55.3054 119.679 54.9376 119.355 54.633H120.61L121.84 52.1029L116.036 52.2651C115.338 52.0799 114.621 51.9753 113.899 51.9531C111.025 51.9531 108.151 53.591 108.151 56.7481C108.151 58.8695 109.519 60.2048 111.408 60.8848L110.642 61.1968C110.328 61.306 109.6 61.4682 109.6 61.9331C109.6 62.3979 110.121 63.2402 110.394 63.5647C110.568 63.8148 110.804 64.0164 111.078 64.1503C111.353 64.2841 111.658 64.3456 111.963 64.329C112.703 64.329 113.444 64.1917 114.181 64.1917C114.919 64.1917 115.634 64.2729 116.127 64.8157C116.506 65.1813 116.756 65.6598 116.839 66.179C117.002 67.7388 115.195 68.1912 113.883 68.1912C112.841 68.1912 111.335 67.9728 111.335 66.6657C111.335 65.9887 111.746 65.633 112.374 65.5239C111.743 65.1931 111.035 65.0328 110.322 65.059C108.926 65.059 107.498 65.9045 107.498 67.43C107.498 68.8994 108.923 69.7167 110.181 70.0693C111.482 70.3709 112.817 70.5093 114.153 70.4811C115.722 70.4811 117.711 70.3407 119.173 69.7448C120.708 69.0897 121.938 67.8106 121.938 66.0667C121.924 65.4041 121.734 64.7569 121.387 64.1913C121.039 63.6256 120.547 63.1618 119.961 62.8471ZM114.122 54.4052C115.436 54.4052 115.791 55.9027 115.791 56.9665C115.791 57.9742 115.355 58.9257 114.175 58.9257C112.92 58.9257 112.534 57.5093 112.534 56.5017C112.534 55.494 112.923 54.4052 114.122 54.4052Z" fill="black"/>
<path d="M126.148 51.7904C126.5 51.7958 126.849 51.7314 127.175 51.6011C127.501 51.4708 127.798 51.2771 128.048 51.0313C128.298 50.7856 128.497 50.4927 128.631 50.1699C128.766 49.8471 128.835 49.5007 128.834 49.1511C128.831 48.4728 128.558 47.8233 128.076 47.3436C127.593 46.864 126.94 46.5931 126.258 46.5898C125.908 46.593 125.561 46.6658 125.24 46.8039C124.918 46.942 124.628 47.1427 124.385 47.3942C124.143 47.6456 123.954 47.9428 123.829 48.2681C123.703 48.5934 123.645 48.9403 123.657 49.2884C123.672 49.9428 123.939 50.5665 124.402 51.0317C124.865 51.4968 125.49 51.7683 126.148 51.7904Z" fill="black"/>
<path d="M128.778 61.8671V51.9277H128.697C128.128 52.2409 127.481 52.3829 126.833 52.3364H123.108V52.4175C124.122 53.263 124.05 54.0523 124.05 55.3313V61.8827C124.05 63.1306 124.131 63.9261 123.093 64.7934V64.8776H129.748V64.7653C128.697 63.9105 128.778 63.1181 128.778 61.8671Z" fill="black"/>
<path d="M140.525 57.5651C139.65 56.9911 138.526 56.6947 137.541 56.3921C136.882 56.2049 135.972 55.9866 135.972 55.1442C135.972 54.408 137.039 54.2707 137.588 54.2707C138.84 54.2759 140.062 54.6446 141.106 55.3314V52.5018C139.715 52.1638 138.289 51.9868 136.857 51.9746C135.433 51.9746 133.955 52.1119 132.693 52.8481C131.432 53.5844 130.667 54.6732 130.667 56.1425C130.667 59.8176 137.212 59.9267 137.212 61.758C137.212 62.7688 136.035 62.9591 135.269 62.9591C133.552 62.9012 131.883 62.3827 130.438 61.4585L131.04 64.5782C132.547 64.9468 134.089 65.1559 135.64 65.2022C138.542 65.2022 142.624 64.3879 142.624 60.7379C142.608 59.3621 141.677 58.2983 140.525 57.5651Z" fill="black"/>
<path d="M149.178 48.4434H147.296C147.076 50.7301 145.159 52.7735 142.803 52.9638V54.8356H144.447V60.6352C144.447 61.9143 144.394 63.2214 145.432 64.148C146.311 64.9092 147.732 65.2087 148.855 65.2087C149.568 65.2087 150.308 65.0714 151.02 65.0184L152.225 62.7035C151.485 62.6755 150.691 62.6505 150.029 62.2138C149.15 61.6397 149.178 60.9347 149.178 59.9551V54.87H149.862C151.014 54.87 151.397 54.8138 152.137 55.6561H152.219V52.3368H149.178V48.4434Z" fill="black"/>
<path d="M156.546 51.7904C156.897 51.7954 157.246 51.7307 157.572 51.6002C157.897 51.4697 158.194 51.2759 158.444 51.0302C158.693 50.7845 158.891 50.4918 159.026 50.1692C159.161 49.8465 159.23 49.5004 159.228 49.1511C159.225 48.4734 158.953 47.8243 158.471 47.3447C157.99 46.8652 157.337 46.5939 156.655 46.5898C156.305 46.593 155.959 46.6657 155.637 46.8038C155.315 46.9419 155.025 47.1426 154.782 47.394C154.539 47.6454 154.35 47.9425 154.224 48.2678C154.099 48.5932 154.04 48.9401 154.051 49.2884C154.068 49.9431 154.335 50.5668 154.799 51.0319C155.262 51.497 155.887 51.7683 156.546 51.7904Z" fill="black"/>
<path d="M159.173 61.8671V51.9277H159.091C158.524 52.2411 157.878 52.3832 157.231 52.3364H153.506V52.4175C154.52 53.263 154.447 54.0523 154.447 55.3313V61.8827C154.447 63.1306 154.529 63.9261 153.487 64.7934V64.8776H160.142V64.7653C159.091 63.9105 159.173 63.1181 159.173 61.8671Z" fill="black"/>
<path d="M169.552 62.4912C168.648 62.4912 167.669 62.2478 167.06 61.5397C166.266 60.6693 165.909 59.2529 165.909 58.1361C165.909 57.2376 166.019 56.205 166.621 55.4406C166.874 55.1361 167.192 54.8923 167.553 54.7275C167.914 54.5627 168.307 54.4812 168.704 54.4891C169.706 54.4948 170.681 54.8075 171.497 55.3845H171.579V52.2648C170.512 52.1837 169.417 51.9902 168.347 51.9902C164.13 51.9902 160.625 54.3051 160.625 58.7974C160.625 62.747 163.885 65.224 167.663 65.224C169.29 65.2393 170.9 64.8851 172.369 64.1883L173.245 61.2214H173.163C172.124 62.0121 170.86 62.4565 169.552 62.4912Z" fill="black"/>
<path d="M184.066 57.5651C183.191 56.9911 182.068 56.6947 181.082 56.3921C180.424 56.2049 179.514 55.9866 179.514 55.1442C179.514 54.408 180.58 54.2707 181.129 54.2707C182.377 54.2783 183.595 54.6481 184.634 55.3345V52.505C183.247 52.1661 181.824 51.9881 180.395 51.9746C178.971 51.9746 177.493 52.1119 176.235 52.8481C174.977 53.5844 174.208 54.6732 174.208 56.1425C174.208 59.8176 180.753 59.9267 180.753 61.758C180.753 62.7688 179.576 62.9591 178.808 62.9591C177.085 62.9591 175.413 62.3352 173.96 61.4616L174.562 64.5813C176.07 64.9499 177.613 65.159 179.165 65.2053C182.068 65.2053 186.147 64.391 186.147 60.741C186.147 59.3621 185.218 58.2983 184.066 57.5651Z" fill="black"/>
<path d="M96.5915 36.3451C99.0514 36.7818 103.206 36.9316 105.352 36.8754C105.722 36.9846 104.48 38.3448 103.005 39.3899C95.1011 44.9648 83.2 43.7138 75.7293 43.1336C70.5835 42.7311 63.1441 43.0181 59.0307 45.4765C69.3849 37.0533 87.963 45.5326 98.722 38.6131C93.0739 38.2872 87.5042 37.1416 82.1897 35.2126C97.7681 35.1939 110.56 32.4486 115.386 27.9219C106.66 29.7937 93.9967 29.7937 85.2426 28.9919C102.186 27.8595 117.363 19.3832 122.694 11.0411C112.819 17.1994 84.5492 24.1876 62.5291 28.7923C37.8013 33.9679 19.8571 42.6625 4.83397 64.9434H4.30371C17.9839 39.3962 37.8766 30.1993 77.3734 21.436C89.2808 18.7967 119.142 9.91804 132.948 0.933284C133.986 0.259427 134.369 0.203272 133.782 2.00022C130.481 12.1611 119.823 22.0974 107.448 26.3152C112.973 25.9003 118.841 24.7367 123.167 23.1331C123.541 22.9927 123.535 23.2735 123.481 23.4794C121.335 30.7327 109.635 35.9957 96.6041 36.2702L96.5915 36.3451ZM28.2785 44.6872C36.2764 41.0839 49.3165 38.1358 58.2714 38.0828C53.113 42.1945 46.1349 44.0664 36.0568 44.057C45.0932 45.5888 59.9876 44.6591 65.786 34.8975C50.3362 34.5388 37.7385 38.8034 28.1781 44.6872H28.2785ZM38.8493 44.1755C41.3845 45.0054 38.1433 47.1455 35.3508 47.7882C35.1594 47.8318 35.2096 47.9598 35.3508 48.0377C37.704 49.5134 36.1446 50.6521 32.8407 51.4289C36.449 51.4289 37.6225 50.5772 38.2155 49.5414C38.1767 49.2716 38.0701 49.0157 37.9056 48.7976C37.741 48.5795 37.5239 48.4062 37.2742 48.2936C40.7978 47.5916 42.6898 45.9382 42.7023 45.4858C42.7023 45.1739 42.3885 44.7121 41.6135 44.3128L38.8493 44.1755Z" fill="url(#paint0_linear_8096:44422)"/>
</g>
<defs>
<linearGradient id="paint0_linear_8096:44422" x1="3.92217" y1="31.2238" x2="135.78" y2="31.2238" gradientUnits="userSpaceOnUse">
<stop stop-color="#00B9F2"/>
<stop offset="0.15" stop-color="#02B0EB"/>
<stop offset="0.39" stop-color="#0998DA"/>
<stop offset="0.69" stop-color="#1470BD"/>
<stop offset="1" stop-color="#21409A"/>
</linearGradient>
<clipPath id="clip0_8096:44422">
<rect width="185.294" height="70" fill="white" transform="translate(0.852539 0.5)"/>
</clipPath>
</defs>
</svg>
